<?xml version="1.0" encoding="UTF-8" standalone="no"?>
<!-- Created with Inkscape (http://www.inkscape.org/) -->

<svg
   width="500"
   height="500"
   viewBox="0 0 1.6666667 1.6666667"
   version="1.1"
   id="svg76"
   xml:space="preserve"
   sodipodi:docname="vs-icon.svg"
   inkscape:version="1.2 (dc2aeda, 2022-05-15)"
   xmlns:inkscape="http://www.inkscape.org/namespaces/inkscape"
   xmlns:sodipodi="http://sodipodi.sourceforge.net/DTD/sodipodi-0.dtd"
   xmlns="http://www.w3.org/2000/svg"
   xmlns:svg="http://www.w3.org/2000/svg"><defs
   id="defs1125" /><sodipodi:namedview
   id="namedview1123"
   pagecolor="#ffffff"
   bordercolor="#000000"
   borderopacity="0.25"
   inkscape:showpageshadow="2"
   inkscape:pageopacity="0.0"
   inkscape:pagecheckerboard="0"
   inkscape:deskcolor="#d1d1d1"
   showgrid="false"
   inkscape:zoom="0.6675088"
   inkscape:cx="258.42356"
   inkscape:cy="156.55224"
   inkscape:window-width="1920"
   inkscape:window-height="983"
   inkscape:window-x="0"
   inkscape:window-y="25"
   inkscape:window-maximized="0"
   inkscape:current-layer="layer1" />
   <g
   inkscape:label="Layer 1"
   inkscape:groupmode="layer"
   id="layer1">
    <g
   aria-label="V"
   id="text254"
   style="fill:#008080"
   transform="matrix(2.277917,0,0,2.277917,-3.9307212,-0.72643394)">

          <!-- V Mark -->
        <path
   id="path795"
   d="M 1.7357117 0.44732095 L 2.0021826 0.99659664 L 2.006424 0.99793136 L 2.0927973 0.78970761 C 2.1533512 0.63353875 2.2884439 0.54314555 2.4468992 0.55967974 L 2.437439 0.53281401 C 2.4217305 0.48819689 2.1952723 0.51698061 2.0932403 0.69029295 L 1.9700409 0.44732095 L 1.7357117 0.44732095 z M 1.814997 0.49154081 L 1.9418862 0.49154081 L 2.0622618 0.74758842 C 2.0412209 0.77959638 2.0219021 0.82650182 2.0043576 0.88532962 L 1.814997 0.49154081 z "
   style="fill:#1a1a1a" />
      </g>

      <!-- S Mark -->
          <path
   id="path919"
   style="fill:#1a1a1a"
   d="m 1.5223308,0.12278646 c -1e-7,-1.1e-7 -0.84075041,0.053048 -0.4395313,0.60638673 C 1.5796778,1.2345146 0.89622398,1.1577735 0.89622398,1.1577735 L 0.73000653,1.5402604 1.0373373,1.5230534 C 1.8426047,1.4332607 1.4341963,1.0333065 1.3504037,0.91896486 1.2666134,0.80462312 1.1516082,0.66716583 1.1560482,0.67175783 1.3490206,0.51886634 1.6457357,0.54945314 1.6457357,0.54945314 Z m -0.069635,0.10940104 0.064367,0.21086755 c -0.1424088,0.009187 -0.253181,0.0301562 -0.4213111,0.13764202 -0.12180301,-0.26687441 0.191351,-0.33053 0.3569437,-0.34850957 z m -0.0975,0.8476237 C 1.5834164,1.3238736 1.2306778,1.4233257 0.89060549,1.4500586 L 0.98069012,1.2510547 C 1.187502,1.2417495 1.2828677,1.2191019 1.3551953,1.0798112 Z"
   sodipodi:nodetypes="ccccccccccccccccc" />

        <!-- Inside-V_mark -->
        

        <!-- Inside1-S_mark -->
          <!-- style="fill:#ffd5d5;stroke-width:0.00759305" -->
        

        <!-- Inside2-S_mark -->
        
      </g><g
   inkscape:groupmode="layer"
   id="layer2"
   inkscape:label="Layer 2" />
   </svg>
